<?xml version="1.0" encoding="UTF-8"?> <svg xmlns="http://www.w3.org/2000/svg" width="24" height="24" fill="none"><path fill="#000" fill-rule="evenodd" d="M14.886 5.199c.75-.865 1.126-1.799 1.126-2.799 0-.133-.006-.266-.021-.4-.523.026-1.079.18-1.666.458a4.59 4.59 0 0 0-1.456 1.061c-.764.84-1.195 1.868-1.195 2.828 0 .133.01.26.024.38 1.188.093 2.282-.5 3.188-1.528Zm3.992 14.321c.427-.591.796-1.235 1.107-1.933.129-.297.25-.605.364-.927a4.706 4.706 0 0 1-1.427-.909c-.937-.843-1.413-1.905-1.427-3.181-.016-1.639.751-2.916 2.3-3.828-.865-1.195-2.167-1.858-3.9-1.994-.64-.053-1.42.081-2.345.405-.978.348-1.555.523-1.725.523-.228 0-.747-.15-1.556-.444-.81-.294-1.464-.444-1.961-.444a5.16 5.16 0 0 0-2.536.695 5.178 5.178 0 0 0-1.876 1.843C3.298 10.294 3 11.45 3 12.79c0 1.17.221 2.378.663 3.627.412 1.155.938 2.169 1.577 3.043.597.818 1.094 1.396 1.492 1.733.624.563 1.248.83 1.875.805.412-.014.95-.15 1.62-.414.668-.261 1.292-.391 1.875-.391.555 0 1.162.13 1.823.391.658.263 1.224.393 1.693.393.654-.015 1.264-.275 1.833-.784.368-.31.845-.868 1.427-1.674Z" clip-rule="evenodd"></path></svg> 