<?xml version="1.0" encoding="UTF-8"?> <svg xmlns="http://www.w3.org/2000/svg" width="24" height="24" viewBox="0 0 24 24" fill="none"><path d="M1.10356 7.58181L4.67519 14.3457C4.91631 14.8137 5.51912 15.176 6.01644 15.176L13.3104 15.1609C13.8077 15.1609 14.0187 14.7835 13.7775 14.3306L10.1909 7.56671C9.94976 7.09867 9.34695 6.73633 8.84964 6.73633L1.55567 6.75143C1.5406 6.75143 1.5406 6.75143 1.52553 6.75143C1.05835 6.76652 0.862437 7.12887 1.10356 7.58181Z" fill="#88B027"></path><path d="M14.9532 15.4622L17.1232 19.4782C17.2739 19.7499 17.6356 19.9764 17.922 19.9613L22.2622 19.916C22.5636 19.916 22.6842 19.6896 22.5335 19.4178L20.3634 15.4018C20.2127 15.13 19.851 14.9036 19.5647 14.9187L15.2244 14.964H15.2094C14.923 14.9791 14.8175 15.1904 14.9532 15.4622Z" fill="#88B027"></path><path d="M14.983 0.228356L10.6428 5.76926C10.3413 6.14672 10.3112 6.82612 10.5524 7.29415L14.1842 14.0278C14.4254 14.4808 14.8775 14.5563 15.1638 14.1788L19.5041 8.63787C19.8055 8.26041 19.8356 7.58101 19.5944 7.12808L15.9625 0.394431C15.8118 0.12267 15.6159 0.00188724 15.4049 0.00188724C15.2542 -0.0132106 15.1035 0.0622787 14.983 0.228356Z" fill="#008ECF"></path><path d="M13.9754 15.5362L11.3833 18.8426C11.2025 19.0691 11.1874 19.4767 11.3381 19.7485L13.5082 23.7645C13.6589 24.0363 13.9151 24.0816 14.0959 23.8552L16.6881 20.5487C16.8689 20.3222 16.884 19.9146 16.7333 19.6428L14.5631 15.6268C14.4727 15.4759 14.3521 15.3853 14.2316 15.3853C14.1261 15.3853 14.0357 15.4306 13.9754 15.5362Z" fill="#008ECF"></path></svg> 