<?xml version="1.0" encoding="UTF-8"?> <svg xmlns="http://www.w3.org/2000/svg" width="24" height="24" viewBox="0 0 24 24" fill="none"><path d="M3 18.934L5.88226 0.451346C5.9175 0.224673 6.09341 0.045984 6.3191 0.0075605C6.54479 -0.030863 6.76969 0.0796806 6.87761 0.281986L9.85837 5.85344L11.0465 3.58644C11.1385 3.41115 11.3199 3.3014 11.5176 3.3014C11.7152 3.3014 11.8966 3.41115 11.9886 3.58644L20.0326 18.934L3 18.934Z" fill="#FFA000"></path><path d="M12.9575 11.7341L9.85699 5.85059L3 18.9338L12.9575 11.7341Z" fill="#F57C00"></path><path d="M17.8251 5.24365C17.7918 5.04706 17.6518 4.88556 17.4622 4.82468C17.2726 4.76381 17.0651 4.81448 16.9243 4.95542L3 18.9334L10.7046 23.2634C11.1885 23.5341 11.7777 23.5341 12.2615 23.2634L20.0327 18.9336L17.8251 5.24365Z" fill="#FFCA28"></path></svg> 