<svg viewBox="0 0 24 24" fill="none" xmlns="http://www.w3.org/2000/svg">
<path d="M12 0C5.373 0 0 5.373 0 12s5.373 12 12 12 12-5.373 12-12S18.627 0 12 0zm5.894 17.08a.746.746 0 0 1-1.027.252 10.092 10.092 0 0 0-4.894-1.35c-1.794 0-3.548.485-5.074 1.403a.745.745 0 0 1-.762-1.28A11.548 11.548 0 0 1 12 14.492c1.984 0 3.893.528 5.64 1.526a.745.745 0 0 1 .254 1.062zm1.474-3.095a.937.937 0 0 1-1.289.316 12.724 12.724 0 0 0-6.079-1.612c-2.184 0-4.29.577-6.091 1.668a.937.937 0 0 1-.96-1.608 14.6 14.6 0 0 1 7.051-1.93 14.6 14.6 0 0 1 7.052 1.877.937.937 0 0 1 .316 1.289zm1.689-3.535a1.127 1.127 0 0 1-1.55.377A15.351 15.351 0 0 0 12 8.8a15.35 15.35 0 0 0-7.348 1.867 1.127 1.127 0 0 1-1.172-1.925A17.606 17.606 0 0 1 12 6.549c3.03 0 5.945.765 8.68 2.275a1.127 1.127 0 0 1 .377 1.626z" fill="#52bd94"/>
</svg>
