<?xml version="1.0" encoding="UTF-8"?> <svg xmlns="http://www.w3.org/2000/svg" width="27" height="38" viewBox="0 0 27 38" fill="none"><path fill-rule="evenodd" clip-rule="evenodd" d="M10.7039 11.8536C10.7039 10.2619 12.01 9.64964 14.1731 9.64964C17.275 9.64964 21.1932 10.5884 24.295 12.2617V2.67042C20.9075 1.32355 17.5607 0.792969 14.1731 0.792969C5.88784 0.792969 0.37793 5.11927 0.37793 12.3434C0.37793 23.6081 15.8873 21.8123 15.8873 26.6691C15.8873 28.5466 14.2547 29.1588 11.9692 29.1588C8.58158 29.1588 4.25527 27.7711 0.826885 25.8937V35.6074C4.6226 37.24 8.45913 37.9339 11.9692 37.9339C20.4585 37.9339 26.2949 33.73 26.2949 26.4243C26.2541 14.2616 10.7039 16.4248 10.7039 11.8536Z" fill="#635BFF"></path></svg> 